<svg width="42" height="34" viewBox="0 0 42 34" fill="none" xmlns="http://www.w3.org/2000/svg">
<path d="M5.83388 1.01366C11.7046 0.609953 18.3908 9.25598 21 13.6295V23.2174C20.1846 24.7313 18.1625 28.3647 16.5969 30.7869C14.64 33.8147 9.74772 33.3101 9.74772 31.7962C9.74772 30.5851 8.11695 30.2823 7.30157 30.2823C7.30157 29.1048 7.10588 26.8508 6.32311 27.2545C5.54034 27.6582 5.6708 25.7406 5.83388 24.7313C5.50773 24.8996 4.85542 24.5295 4.85542 21.7036C4.85542 18.8776 9.42157 16.489 11.7046 15.648C11.0523 15.8162 9.16064 16.1526 6.81234 16.1526C4.46404 16.1526 3.55081 14.4705 3.38773 13.6295C3.06158 13.293 2.50712 12.3174 2.8985 11.1063C3.28989 9.89517 2.73543 9.25597 2.40927 9.08775C2.73543 8.75133 3.19204 7.87664 2.40927 7.06923C1.43081 6.05996 -1.50456 1.51829 5.83388 1.01366Z" fill="url(#paint0_linear_6_62)" stroke="#9B4343"/>
<path d="M36.1661 1.01366C30.2954 0.609953 23.6092 9.25598 21 13.6295V23.2174C21.8154 24.7313 23.8375 28.3647 25.4031 30.7869C27.36 33.8147 32.2523 33.3101 32.2523 31.7962C32.2523 30.5851 33.883 30.2823 34.6984 30.2823C34.6984 29.1048 34.8941 26.8508 35.6769 27.2545C36.4597 27.6582 36.3292 25.7406 36.1661 24.7313C36.4923 24.8996 37.1446 24.5295 37.1446 21.7036C37.1446 18.8776 32.5784 16.489 30.2954 15.648C30.9477 15.8162 32.8394 16.1526 35.1877 16.1526C37.536 16.1526 38.4492 14.4705 38.6123 13.6295C38.9384 13.293 39.4929 12.3174 39.1015 11.1063C38.7101 9.89517 39.2646 9.25597 39.5907 9.08775C39.2646 8.75133 38.808 7.87664 39.5907 7.06923C40.5692 6.05996 43.5046 1.51829 36.1661 1.01366Z" fill="url(#paint1_linear_6_62)" stroke="#9B4343"/>
<path d="M19 11L20.0715 8.32119C20.4068 7.48305 21.5932 7.48305 21.9285 8.32119L23 11" stroke="#9B4343"/>
<path d="M17.4472 0.776393C17.3237 0.529404 17.0234 0.429292 16.7764 0.552786C16.5294 0.676281 16.4293 0.976618 16.5528 1.22361L17.4472 0.776393ZM20.9472 7.77639L17.4472 0.776393L16.5528 1.22361L20.0528 8.22361L20.9472 7.77639Z" fill="#9B4343"/>
<path d="M25.4472 1.22361C25.5707 0.976618 25.4706 0.676281 25.2236 0.552786C24.9766 0.429292 24.6763 0.529404 24.5528 0.776393L25.4472 1.22361ZM21.9472 8.22361L25.4472 1.22361L24.5528 0.776393L21.0528 7.77639L21.9472 8.22361Z" fill="#9B4343"/>
<defs>
<linearGradient id="paint0_linear_6_62" x1="11" y1="1" x2="11" y2="33" gradientUnits="userSpaceOnUse">
<stop stop-color="white"/>
<stop offset="1" stop-color="#FFACC0"/>
</linearGradient>
<linearGradient id="paint1_linear_6_62" x1="31" y1="1" x2="31" y2="33" gradientUnits="userSpaceOnUse">
<stop stop-color="white"/>
<stop offset="1" stop-color="#FFACC0"/>
</linearGradient>
</defs>
</svg>
